<svg width="100%" height="100%" viewBox="0 0 128 128" xmlns="http://www.w3.org/2000/svg">
  <rect width="128" height="128" rx="24" fill="#0B111E"/>

  <defs>
    <linearGradient id="gradMagenta" x1="32" y1="0" x2="64" y2="0" gradientUnits="userSpaceOnUse">
      <stop offset="0%" stop-color="#E91E63"/>
      <stop offset="100%" stop-color="#00E5FF"/>
    </linearGradient>
    <linearGradient id="gradOrange" x1="32" y1="0" x2="64" y2="0" gradientUnits="userSpaceOnUse">
      <stop offset="0%" stop-color="#FF9800"/>
      <stop offset="100%" stop-color="#00E5FF"/>
    </linearGradient>
    <linearGradient id="gradGreen" x1="32" y1="0" x2="64" y2="0" gradientUnits="userSpaceOnUse">
      <stop offset="0%" stop-color="#00E676"/>
      <stop offset="100%" stop-color="#00E5FF"/>
    </linearGradient>
    <linearGradient id="gradPurple" x1="32" y1="0" x2="64" y2="0" gradientUnits="userSpaceOnUse">
      <stop offset="0%" stop-color="#7C4DFF"/>
      <stop offset="100%" stop-color="#00E5FF"/>
    </linearGradient>
  </defs>

  <g>
    <polygon points="0,16 32,48 32,56 0,40" fill="#E91E63"/>
    <polygon points="0,40 32,56 32,64 0,64" fill="#FF9800"/>
    <polygon points="0,64 32,64 32,72 0,88" fill="#00E676"/>
    <polygon points="0,88 32,72 32,80 0,112" fill="#7C4DFF"/>
  </g>

  <polygon points="64,64 96,48 96,80 64,96" fill="#0D141F"/>
  <polygon points="32,48 64,64 64,96 32,80" fill="#121B29"/>
  <polygon points="64,32 32,48 64,64 96,48" fill="#182436"/>

  <g>
    <polygon points="32,48 64,72 64,76 32,56" fill="url(#gradMagenta)"/>
    <polygon points="32,56 64,76 64,80 32,64" fill="url(#gradOrange)"/>
    <polygon points="32,64 64,80 64,84 32,72" fill="url(#gradGreen)"/>
    <polygon points="32,72 64,84 64,88 32,80" fill="url(#gradPurple)"/>
  </g>

  <polygon points="64,72 96,56 96,72 64,88" fill="#00E5FF"/>
  <polygon points="64,76 96,60 96,68 64,84" fill="#FFFFFF"/>

  <polygon points="96,56 128,52 128,76 96,72" fill="#00E5FF"/>
  <polygon points="96,60 128,58 128,70 96,68" fill="#FFFFFF"/>
</svg>
